<svg data-v-423bf9ae="" xmlns="http://www.w3.org/2000/svg" viewBox="0 0 411 110" class="iconLeft"><!----><!----><!----><g data-v-423bf9ae="" id="449c6bb0-3c2e-42cb-a7ad-b0bba3a4aff9" fill="black" transform="matrix(4.38596512019678,0,0,4.38596512019678,116.15333036561461,8.489811351779409)"><path d="M6.06 11.31L6.06 11.51C6.01 12.87 5.57 13.47 4.26 13.47C2.53 13.47 2.30 12.49 2.30 10.88L2.30 7.53C2.30 5.96 2.56 4.96 4.26 4.96C5.47 4.96 6.03 5.60 6.03 6.89L6.03 7.04L7.43 7.04L7.43 6.92C7.43 4.82 6.44 3.71 4.26 3.71C1.74 3.71 0.91 5.05 0.91 7.53L0.91 10.93C0.91 13.37 1.71 14.71 4.26 14.71C6.54 14.71 7.41 13.58 7.45 11.49L7.45 11.31ZM10.77 15.05C10.53 15.92 10.08 16.11 9.38 16.11C9.10 16.11 8.93 16.09 8.71 16.00L8.71 17.25C9.02 17.35 9.27 17.39 9.63 17.39C11.03 17.39 11.84 16.73 12.50 14.32L14.71 6.24L13.30 6.24L11.65 13.15L9.66 6.24L8.26 6.24L10.89 14.60ZM17.21 3.74L15.92 3.74L15.92 14.55L17.15 14.55L17.18 13.97C17.56 14.43 18.26 14.71 19.08 14.71C20.55 14.71 21.73 13.83 21.73 11.58L21.73 9.28C21.73 7.20 20.90 6.08 19.21 6.08C18.27 6.08 17.58 6.36 17.21 6.80ZM17.21 8.88C17.21 7.76 17.85 7.21 18.84 7.21C19.96 7.21 20.44 7.87 20.44 9.25L20.44 11.51C20.44 13.05 19.81 13.58 18.82 13.58C17.91 13.58 17.21 13.10 17.21 11.76ZM27.72 12.22C27.69 13.17 27.30 13.61 26.17 13.61C24.96 13.61 24.54 13.03 24.54 11.63L24.54 10.71L28.99 10.71L28.99 9.17C28.99 7.04 28.11 6.08 26.15 6.08C24.22 6.08 23.27 7.08 23.27 9.24L23.27 11.54C23.27 13.82 24.18 14.71 26.18 14.71C28.10 14.71 28.88 13.87 28.92 12.22ZM26.17 7.20C27.38 7.20 27.76 7.87 27.76 9.23L27.76 9.69L24.54 9.69L24.54 9.30C24.54 7.80 24.96 7.20 26.17 7.20ZM30.72 6.24L30.72 14.55L32.00 14.55L32.00 9.38C32.00 8.02 32.82 7.41 33.84 7.41C34.05 7.41 34.20 7.42 34.36 7.45L34.36 6.12C34.24 6.10 34.09 6.09 33.95 6.09C33.03 6.09 32.28 6.62 31.95 7.22L31.84 6.24ZM39.28 14.55L42.13 3.88L40.68 3.88L38.42 13.10L36.15 3.88L34.71 3.88L37.55 14.55ZM46.80 12.22C46.77 13.17 46.38 13.61 45.25 13.61C44.04 13.61 43.62 13.03 43.62 11.63L43.62 10.71L48.08 10.71L48.08 9.17C48.08 7.04 47.19 6.08 45.23 6.08C43.30 6.08 42.35 7.08 42.35 9.24L42.35 11.54C42.35 13.82 43.26 14.71 45.26 14.71C47.18 14.71 47.96 13.87 48.01 12.22ZM45.25 7.20C46.47 7.20 46.84 7.87 46.84 9.23L46.84 9.69L43.62 9.69L43.62 9.30C43.62 7.80 44.04 7.20 45.25 7.20ZM49.80 6.24L49.80 14.55L51.09 14.55L51.09 9.38C51.09 8.02 51.90 7.41 52.92 7.41C53.13 7.41 53.28 7.42 53.44 7.45L53.44 6.12C53.33 6.10 53.17 6.09 53.03 6.09C52.11 6.09 51.37 6.62 51.03 7.22L50.92 6.24ZM57.30 9.67C56.20 9.48 55.73 9.23 55.73 8.32C55.73 7.62 56.17 7.18 57.20 7.18C58.31 7.18 58.72 7.63 58.74 8.47L59.95 8.47C59.95 6.93 59.11 6.08 57.23 6.08C55.45 6.08 54.47 6.96 54.47 8.37C54.47 10.07 55.48 10.53 56.98 10.78C58.13 10.98 58.77 11.24 58.77 12.28C58.77 13.17 58.24 13.61 57.20 13.61C55.99 13.61 55.52 13.10 55.52 12.21L54.29 12.21C54.29 13.85 55.23 14.71 57.15 14.71C59.04 14.71 60.07 13.79 60.07 12.19C60.07 10.35 58.72 9.91 57.30 9.67ZM65.88 12.22C65.86 13.17 65.46 13.61 64.33 13.61C63.13 13.61 62.71 13.03 62.71 11.63L62.71 10.71L67.16 10.71L67.16 9.17C67.16 7.04 66.28 6.08 64.32 6.08C62.38 6.08 61.43 7.08 61.43 9.24L61.43 11.54C61.43 13.82 62.34 14.71 64.34 14.71C66.26 14.71 67.05 13.87 67.09 12.22ZM64.33 7.20C65.55 7.20 65.93 7.87 65.93 9.23L65.93 9.69L62.71 9.69L62.71 9.30C62.71 7.80 63.13 7.20 64.33 7.20Z"></path></g><!----><g data-v-423bf9ae="" id="e56958e4-fe73-4241-b5f3-4ac70b66b313" transform="matrix(1.1031444125705294,0,0,1.1031444125705294,-4.547775102090796,0.2382582256489627)" stroke="none" fill="black"><path d="M92.115 16.646a187.821 187.821 0 01-14.671-4.095C68.639 9.696 58.204 5.539 50.082 0 32.712 11.713 4.61 17.369 4.61 17.369s.084 24.041 1.591 33.582c1.435 9.08 5.127 16.719 9.795 23.048.315.428.635.851.959 1.266a65.9 65.9 0 006.841 7.476c.385.362.77.719 1.158 1.066 12 10.809 25.127 15.476 25.127 15.476S88.322 85.631 93.8 50.951c1.508-9.542 1.591-33.582 1.591-33.582s-1.208-.24-3.276-.723zm-1.032 33.875c-1.179 7.459-4.077 14.507-8.617 20.946-3.669 5.206-8.416 10.037-14.109 14.362-8.006 6.08-15.686 9.453-18.276 10.501-2.603-1.046-10.315-4.421-18.357-10.504a74.78 74.78 0 01-5.98-5.032 63.014 63.014 0 01-6.827-7.493 62.665 62.665 0 01-.95-1.272c-.136-.188-.275-.375-.409-.565-4.555-6.438-7.461-13.484-8.64-20.942-1.192-7.55-1.475-24.8-1.539-30.941a193.131 193.131 0 0014.274-3.878c11.615-3.635 21.164-7.805 28.42-12.41 6.583 4.224 15.037 8.063 25.191 11.439.552.184 1.112.366 1.675.547.493.158.988.317 1.489.473a190.128 190.128 0 0011.403 3.178c1.088.266 2.027.485 2.79.657-.063 6.148-.346 23.388-1.538 30.934z"></path><path d="M85.14 21.398a159.675 159.675 0 01-12.863-3.679C65.041 15.306 56.71 11.894 50.15 7.421c-14.773 9.961-38.673 14.772-38.673 14.772s.07 20.447 1.353 28.561c1.154 7.306 4.026 13.513 7.693 18.719.307.437.62.864.937 1.286 2.106 2.798 4.434 5.29 6.827 7.493.389.356.78.707 1.171 1.05C39.474 88.065 50.15 91.86 50.15 91.86s32.524-11.61 37.184-41.106c1.282-8.114 1.352-28.561 1.352-28.561s-.63-.125-1.742-.375c-.506-.113-1.111-.254-1.804-.42zm1.965 2.068c-.042 4.588-.261 20.3-1.325 27.043-1.021 6.471-3.537 12.58-7.475 18.16-3.172 4.495-7.271 8.664-12.185 12.39-7.185 5.449-14.056 8.362-15.973 9.12-1.916-.751-8.759-3.638-15.965-9.065a65.754 65.754 0 01-3.61-2.925 67.063 67.063 0 01-1.172-1.052c-2.578-2.367-4.859-4.876-6.818-7.501a45.399 45.399 0 01-.675-.925c-.087-.123-.169-.247-.255-.368-3.821-5.493-6.269-11.489-7.271-17.834-1.066-6.745-1.283-22.464-1.325-27.047a161.006 161.006 0 0012.686-3.418c10.038-3.142 18.24-6.75 24.402-10.736 5.437 3.556 12.448 6.794 20.889 9.654a164.455 164.455 0 003.454 1.124 161.338 161.338 0 0011.141 3.046c.577.133 1.071.244 1.477.334z"></path><path d="M61.838 40.458h-.983v-3.645c0-5.891-4.793-10.685-10.685-10.685-5.891 0-10.684 4.793-10.684 10.685v3.645h-.982a3.537 3.537 0 00-3.538 3.537v3.666h30.41v-3.666a3.54 3.54 0 00-3.538-3.537zm-5.307 0H43.809v-3.645a6.368 6.368 0 016.361-6.361 6.369 6.369 0 016.362 6.361v3.645zM34.965 49.233h30.41v7.785h-30.41zM34.965 61.589a3.538 3.538 0 003.538 3.538h23.335a3.538 3.538 0 003.537-3.538V58.59h-30.41v2.999z"></path></g><!----></svg>